<svg xmlns="http://www.w3.org/2000/svg" viewBox="0 0 600 600"><defs><linearGradient id="bg" x2="0" y2="1"><stop stop-color="#19363c"/><stop offset="1" stop-color="#0b2027"/></linearGradient><linearGradient id="sun" x2="0" y2="1"><stop stop-color="#f4d5a8"/><stop offset="1" stop-color="#bea88c"/></linearGradient><linearGradient id="land" x2="0" y2="1"><stop stop-color="#7ba99c"/><stop offset="1" stop-color="#1c4949"/></linearGradient></defs><rect width="600" height="600" fill="url(#bg)"/><circle cx="326" cy="240" r="115" fill="url(#sun)"/><circle cx="326" cy="240" r="148" fill="none" stroke="#accbbe" opacity=".15"/><circle cx="326" cy="240" r="165" fill="none" stroke="#accbbe" opacity=".1"/><path d="M0 416Q100 297 187 350Q303 402 391 316T600 343V600H0Z" fill="url(#land)"/><path d="M0 469Q160 345 320 432T600 403V600H0Z" fill="#173e43"/><path d="M0 520Q193 406 358 470T600 468V600H0Z" fill="#102d34"/><g fill="none" stroke="#b6efdc" opacity=".22"><path d="M0 433Q100 314 187 367Q303 419 391 333T600 360"/><path d="M0 447Q100 328 187 381Q303 433 391 347T600 374"/><path d="M0 461Q100 342 187 395Q303 447 391 361T600 388"/></g><g fill="#d3e5dc"><circle cx="100" cy="119" r="2"/><circle cx="187" cy="165" r="1.5"/><circle cx="474" cy="111" r="2"/><circle cx="498" cy="272" r="1.5"/></g><path d="M67 515v22m12-35v48m12-42v36m12-27v18" stroke="#dbeadc" stroke-width="3" stroke-linecap="round"/></svg>
